<?xml version="1.0" encoding="utf-8"?>
<!-- Generator: Adobe Illustrator 15.0.0, SVG Export Plug-In . SVG Version: 6.00 Build 0)  -->
<!DOCTYPE svg PUBLIC "-//W3C//DTD SVG 1.1//EN" "http://www.w3.org/Graphics/SVG/1.1/DTD/svg11.dtd">
<svg version="1.1" id="Layer_1" xmlns="http://www.w3.org/2000/svg" xmlns:xlink="http://www.w3.org/1999/xlink" x="0px" y="0px"
	 width="515.764px" height="151.465px" viewBox="0 0 515.764 151.465" enable-background="new 0 0 515.764 151.465"
	 xml:space="preserve">
<g id="XMLID_7_">
	
		<linearGradient id="SVGID_1_" gradientUnits="userSpaceOnUse" x1="-124.3032" y1="62.9399" x2="54.3107" y2="62.9399" gradientTransform="matrix(0.8086 -0.5884 -0.5884 -0.8086 183.6263 88.8947)">
		<stop  offset="0" style="stop-color:#B6F0FD"/>
		<stop  offset="0.5459" style="stop-color:#64A5C2"/>
		<stop  offset="0.949" style="stop-color:#9CD6F3"/>
		<stop  offset="1" style="stop-color:#A4DCFA"/>
	</linearGradient>
	<path fill="url(#SVGID_1_)" d="M142.872,61.335c-2.838,0.975-5.463,1.445-7.802,1.86c-1.158,0.211-2.253,0.404-3.319,0.647
		c-1.166,0.268-2.131,0.547-3.038,0.884c-0.444,0.166-0.886,0.35-1.302,0.54c-9.674,4.483-14.261,14.307-10.913,23.361
		c1.011,2.733,2.704,5.219,4.892,7.188c1.466,1.166,3.352,2.482,5.344,3.876c5.459,3.815,12.252,8.563,16.613,14.427
		c4.375,5.895,5.602,11.975,3.653,18.133c-0.466,1.49-1.125,2.984-1.963,4.479c-3.382,6.041-8.711,10.646-14.997,12.974
		c-6.116,2.264-12.889,2.346-19.071,0.244c-6.08-2.072-11.341-6.156-14.82-11.511l-0.104-0.172
		c-0.204-0.364-0.394-0.729-0.572-1.091c-0.002-0.004-0.002-0.008-0.006-0.01c-4.891-9.883-1.819-19.074,0.667-26.512
		c0.911-2.722,1.768-5.294,2.2-7.673l0.013-0.056c0.753-3.746,0.528-7.281-0.665-10.51c-1.786-4.824-5.255-8.69-9.773-10.888
		l-0.167-0.085c-3.824-2.184-7.735-2.342-12.68-0.514c-4.361,1.613-8.853,4.541-13.608,7.636c-4.581,2.981-9.32,6.069-14.305,8.188
		c-0.952,0.402-1.907,0.783-2.843,1.129c-9.713,3.594-18.234,3.996-24.564,1.257c-0.01-0.003-0.021-0.009-0.031-0.015
		c-0.536-0.244-1.061-0.508-1.578-0.781c-0.865-0.475-1.678-1.021-2.439-1.633C9.72,92.04,5.174,85.806,2.538,78.684
		c-7.809-21.11,3.013-44.64,24.128-52.45c16.361-6.053,34.953-1.372,45.212,11.388c2.314,2.888,3.972,5.348,5.233,7.594
		c1.832,3.259,2.841,6.072,3.828,9.11c0.231,0.709,0.468,1.543,0.716,2.425c1,3.524,2.506,8.85,5.062,10.705l0.089,0.072
		c4.139,3.273,9.521,4.146,14.398,2.346c5.067-1.876,7.303-6.603,8.185-9.252l0.059-0.166c1.715-4.248-0.58-9.278-2.605-13.712
		l-0.16-0.343c-0.272-0.605-0.572-1.206-0.88-1.847c-1.869-3.818-4.13-8.438-3.369-16.089c0.119-1.179,0.304-2.436,0.58-3.768
		l0.013-0.048c2.316-10.327,9.942-19.023,19.89-22.704c16.175-5.984,34.195,2.305,40.178,18.479
		c2.622,7.082,2.58,14.859-0.11,21.904c-2.657,6.95-7.706,12.735-14.222,16.299c-1.688,0.99-3.381,1.789-5.174,2.454
		C143.348,61.168,143.107,61.254,142.872,61.335z M147.37,56.165c12.189-6.652,18.031-21.348,13.071-34.76
		C154.989,6.672,138.629-0.852,123.897,4.6c-9.41,3.479-16.054,11.506-18.11,20.668c-2.125,10.362,1.223,15.036,3.467,19.954
		c1.992,4.361,4.416,9.471,3.392,14.411c-0.096,0.387-0.195,0.775-0.311,1.158c-0.002,0.009-0.004,0.021-0.006,0.029
		c-0.079,0.229-0.16,0.462-0.256,0.692c-1.587,4.771-4.813,9.135-9.89,11.015c-6.024,2.226-12.436,0.934-17.133-2.784
		c-0.127-0.09-0.254-0.191-0.376-0.293c-3.793-3.161-5.271-10.714-6.426-14.251c-1.543-4.751-3.069-8.927-8.578-15.806
		c-9.601-11.94-26.892-16.104-42.021-10.508C7.965,36.169-2.087,58.024,5.193,77.704c2.543,6.875,6.86,12.57,12.252,16.791
		c6.357,5.098,17.004,4.58,28.593-0.345c12.76-5.421,24.411-17.854,36.043-17.278c0,0,0.007,0.004,0.007,0
		c2.352,0.281,4.631,0.942,6.75,1.942c0.104,0.058,0.205,0.112,0.308,0.171c5.014,2.441,9.074,6.735,11.191,12.449
		c1.488,4.031,1.572,8.129,0.784,12.051c-0.075,0.414-0.16,0.832-0.254,1.25c-2.144,9.381-9,20.133-2.35,32.163
		c6.417,9.864,19.035,14.406,30.536,10.151c5.975-2.211,10.629-6.553,13.517-11.705c10.05-17.891-12.909-29.477-22.643-37.07
		c-0.119-0.104-0.241-0.199-0.364-0.296c-2.475-2.202-4.489-5.049-5.723-8.369c-4.012-10.849,1.884-22.043,12.379-26.91
		c1.635-0.758,3.254-1.24,4.903-1.614c0.002-0.002,0.002-0.002,0.002-0.002C135.963,59.979,141.079,59.844,147.37,56.165z"/>
	
		<linearGradient id="SVGID_2_" gradientUnits="userSpaceOnUse" x1="32.6079" y1="99.2017" x2="87.2145" y2="78.2341" gradientTransform="matrix(0.9877 0.1563 0.1563 -0.9877 60.0879 113.0248)">
		<stop  offset="0" style="stop-color:#82CAE4"/>
		<stop  offset="1" style="stop-color:#16466C"/>
	</linearGradient>
	<path fill="url(#SVGID_2_)" d="M160.441,21.405c4.96,13.412-0.882,28.107-13.071,34.76c-6.291,3.679-11.406,3.813-16.245,4.918
		l-0.004-0.022c7.078-2.618,10.694-10.475,8.074-17.553c-2.618-7.076-10.476-10.69-17.553-8.075
		c-6.192,2.292-10.271,8.674-8.87,14.584c0.669,2.917,0.64,6.325-0.127,9.617c1.024-4.94-1.399-10.05-3.392-14.411
		c-2.244-4.918-5.592-9.592-3.467-19.954c2.057-9.162,8.7-17.188,18.11-20.668C138.629-0.852,154.989,6.672,160.441,21.405z"/>
	
		<linearGradient id="SVGID_3_" gradientUnits="userSpaceOnUse" x1="58.2026" y1="61.7339" x2="78.221" y2="1.6918" gradientTransform="matrix(0.9877 0.1563 0.1563 -0.9877 60.0879 113.0248)">
		<stop  offset="0" style="stop-color:#366C91"/>
		<stop  offset="0.0742" style="stop-color:#427B9E"/>
		<stop  offset="0.3378" style="stop-color:#68AAC7"/>
		<stop  offset="0.5712" style="stop-color:#83CCE5"/>
		<stop  offset="0.7633" style="stop-color:#94E0F7"/>
		<stop  offset="0.8903" style="stop-color:#9AE8FE"/>
	</linearGradient>
	<path fill="url(#SVGID_3_)" d="M135.07,63.195c2.339-0.415,4.964-0.886,7.802-1.86c-7.255,3.999-11.156,12.327-9.788,21.572
		c1.385,9.352,11.281,18.315,13.916,24.866c2.678,6.656,3.633,14.662,0.006,24.479H147c1.948-6.16,0.722-12.239-3.653-18.133
		c-4.361-5.863-11.154-10.611-16.613-14.428c-1.992-1.395-3.878-2.71-5.344-3.876c-2.188-1.97-3.881-4.454-4.892-7.188
		c-3.348-9.055,1.239-18.877,10.913-23.36c0.416-0.19,0.857-0.374,1.302-0.54c0.907-0.337,1.872-0.616,3.038-0.884
		C132.817,63.6,133.912,63.406,135.07,63.195z"/>
	
		<linearGradient id="SVGID_4_" gradientUnits="userSpaceOnUse" x1="39.5825" y1="-13.4624" x2="82.5609" y2="10.6513" gradientTransform="matrix(0.9877 0.1563 0.1563 -0.9877 60.0879 113.0248)">
		<stop  offset="0" style="stop-color:#9AE8FD"/>
		<stop  offset="1" style="stop-color:#0B3862"/>
	</linearGradient>
	<path fill="url(#SVGID_4_)" d="M119.927,98.274c9.733,7.594,32.692,19.182,22.643,37.07c-2.888,5.152-7.542,9.494-13.517,11.705
		c-11.501,4.255-24.119-0.287-30.536-10.151c-6.65-12.03,0.206-22.782,2.35-32.163h0.004c-0.476,2.174-0.422,4.52,0.405,6.752
		c2.305,6.229,9.164,9.438,15.324,7.157c6.152-2.274,9.276-9.175,6.97-15.403C122.807,101.179,121.503,99.563,119.927,98.274z"/>
	
		<linearGradient id="SVGID_5_" gradientUnits="userSpaceOnUse" x1="27.4995" y1="83.7837" x2="57.2268" y2="71.232" gradientTransform="matrix(1 0 0 -1 55 126.9658)">
		<stop  offset="0" style="stop-color:#24567E"/>
		<stop  offset="0.9974" style="stop-color:#9AE8FD"/>
	</linearGradient>
	<path fill="url(#SVGID_5_)" d="M102.356,28.456l0.076,0.009c-0.761,7.65,1.5,12.271,3.369,16.089
		c0.308,0.641,0.607,1.241,0.88,1.847l0.16,0.343c2.025,4.434,4.32,9.464,2.605,13.712l-0.059,0.166
		c-0.882,2.649-3.117,7.376-8.185,9.252c-4.877,1.801-10.26,0.928-14.398-2.346l-0.089-0.072c-2.556-1.855-4.062-7.181-5.062-10.705
		c-0.248-0.882-0.484-1.716-0.716-2.425c-0.987-3.038-1.996-5.852-3.828-9.11l0.019-0.009c1.018,1.815,1.808,3.358,2.069,3.776
		c3.307,5.24,8.349,6.698,14.169,4.444c6.54-2.531,8.081-8.166,8.391-14.321C101.819,37.893,101.966,32.428,102.356,28.456z"/>
	
		<linearGradient id="SVGID_6_" gradientUnits="userSpaceOnUse" x1="-25.0083" y1="26.5474" x2="41.5944" y2="4.0482" gradientTransform="matrix(0.9877 0.1563 0.1563 -0.9877 60.0879 113.0248)">
		<stop  offset="0" style="stop-color:#2B6085"/>
		<stop  offset="1" style="stop-color:#98E7FE"/>
	</linearGradient>
	<path fill="url(#SVGID_6_)" d="M97.681,92.418c1.193,3.228,1.418,6.763,0.665,10.51l-0.013,0.055
		c-0.433,2.379-1.289,4.951-2.2,7.674c-2.486,7.436-5.558,16.629-0.667,26.51c-6.956-10.071-4.737-22.42-6.842-29.067
		c-1.934-6.103-11.237-11.751-20.724-8.983c-10.539,3.077-16.299,4.094-23.614,4.57c-5.872,0.391-17.989-0.42-26.155-5.338
		c5.91,3.562,16.461,3.132,26.174-0.463c0.936-0.344,1.891-0.725,2.843-1.129c4.984-2.118,9.724-5.207,14.305-8.188
		c4.756-3.095,9.247-6.021,13.608-7.636c4.944-1.828,8.855-1.67,12.68,0.514l0.167,0.085C92.426,83.727,95.895,87.594,97.681,92.418
		z"/>
	
		<linearGradient id="SVGID_7_" gradientUnits="userSpaceOnUse" x1="-39.2783" y1="35.4819" x2="10.7215" y2="88.4817" gradientTransform="matrix(1 0 0 -1 55 126.9658)">
		<stop  offset="0" style="stop-color:#AEE8F8"/>
		<stop  offset="1" style="stop-color:#26577E"/>
	</linearGradient>
	<path fill="url(#SVGID_7_)" d="M84.674,69.451l-0.036,0.043c-2.304-1.917-4.148-4.445-5.261-7.457
		c-0.074-0.205-2.225-4.887-2.821-6.351C72.424,45.468,60.968,40.097,50.631,43.92c-10.333,3.82-15.61,15.297-11.789,25.636
		c3.824,10.333,15.301,15.61,25.632,11.789c0.218-0.082,1.891-0.763,2.762-1.158c1.701-0.771,3.05-1.53,4.506-2.069
		c3.441-1.271,6.966-1.65,10.339-1.246C70.449,76.297,58.797,88.729,46.038,94.15c-11.589,4.925-22.235,5.442-28.593,0.345
		c-5.392-4.221-9.709-9.916-12.252-16.791c-7.28-19.68,2.772-41.535,22.456-48.816c15.13-5.596,32.421-1.433,42.021,10.508
		c5.509,6.879,7.035,11.055,8.578,15.806C79.403,58.737,80.881,66.29,84.674,69.451z"/>
	
		<linearGradient id="SVGID_8_" gradientUnits="userSpaceOnUse" x1="-43.4219" y1="7.3823" x2="-42.3675" y2="7.9738" gradientTransform="matrix(0.9877 0.1563 0.1563 -0.9877 60.0879 113.0248)">
		<stop  offset="0" style="stop-color:#DCFFBB"/>
		<stop  offset="1" style="stop-color:#94E158"/>
	</linearGradient>
	<path fill="url(#SVGID_8_)" d="M18.131,98.347c0.518,0.272,1.042,0.536,1.578,0.78C19.165,98.89,18.639,98.631,18.131,98.347z"/>
</g>
<path fill="#FFFFFF" d="M238.177,73.076c0,4.332-0.683,8.102-2.044,11.313c-1.362,3.212-3.271,5.889-5.729,8.03
	c-2.457,2.142-5.389,3.747-8.795,4.818c-3.407,1.069-7.154,1.604-11.241,1.604c-2.043,0-4.185-0.108-6.424-0.329
	c-2.239-0.219-4.208-0.547-5.912-0.984V48.77c1.703-0.487,3.672-0.84,5.912-1.059c2.239-0.218,4.381-0.329,6.424-0.329
	c4.087,0,7.834,0.538,11.241,1.606c3.406,1.072,6.338,2.678,8.795,4.817c2.458,2.141,4.367,4.818,5.729,8.03
	C237.497,65.046,238.177,68.794,238.177,73.076z M202.996,94.024c0.292,0.05,1.034,0.146,2.227,0.293
	c1.192,0.145,3.104,0.219,5.729,0.219c3.65,0,6.837-0.499,9.562-1.496c2.726-0.998,5.012-2.422,6.861-4.272
	c1.849-1.849,3.235-4.099,4.16-6.75c0.924-2.651,1.387-5.632,1.387-8.941s-0.463-6.278-1.387-8.905
	c-0.925-2.628-2.312-4.865-4.16-6.715c-1.85-1.849-4.136-3.272-6.861-4.27s-5.912-1.497-9.562-1.497
	c-2.627,0-4.539,0.073-5.729,0.22c-1.192,0.146-1.934,0.244-2.227,0.291V94.024L202.996,94.024z"/>
<path fill="#FFFFFF" d="M254.09,49.28c0,1.12-0.342,2.008-1.022,2.664c-0.684,0.657-1.509,0.985-2.482,0.985
	c-0.975,0-1.8-0.329-2.481-0.985c-0.682-0.656-1.022-1.544-1.022-2.664c0-1.118,0.341-2.008,1.022-2.664
	c0.682-0.657,1.507-0.986,2.481-0.986c0.974,0,1.799,0.329,2.482,0.986C253.749,47.272,254.09,48.162,254.09,49.28z M252.996,98.404
	h-4.745V60.667h4.745V98.404z"/>
<path fill="#FFFFFF" d="M289.417,94.024c-0.291,0.245-0.729,0.524-1.313,0.841c-0.583,0.315-1.302,0.644-2.152,0.984
	s-1.823,0.621-2.921,0.84c-1.094,0.22-2.323,0.329-3.684,0.329c-2.19,0-4.308-0.339-6.351-1.021
	c-2.044-0.682-3.831-1.752-5.365-3.212c-1.533-1.46-2.762-3.344-3.686-5.655s-1.386-5.122-1.386-8.432
	c0-2.676,0.411-5.158,1.24-7.445c0.827-2.287,2.007-4.272,3.541-5.949c1.531-1.678,3.405-2.994,5.62-3.941
	c2.213-0.949,4.707-1.423,7.48-1.423c3.503,0,6.312,0.231,8.43,0.693c2.117,0.463,3.856,0.911,5.219,1.35v34.452
	c0,5.646-1.459,9.673-4.379,12.082c-2.919,2.409-7.324,3.614-13.211,3.614c-2.436,0-4.637-0.184-6.605-0.548
	c-1.973-0.364-3.664-0.792-5.074-1.277l0.949-4.307c1.168,0.536,2.762,0.998,4.781,1.387c2.019,0.389,4.051,0.586,6.095,0.586
	c4.478,0,7.725-0.866,9.744-2.592c2.02-1.729,3.029-4.686,3.029-8.87v-2.485H289.417z M289.345,65.264
	c-0.829-0.242-1.897-0.474-3.211-0.692s-3.188-0.328-5.619-0.328c-2.045,0-3.858,0.353-5.439,1.058
	c-1.583,0.706-2.932,1.703-4.051,2.993c-1.119,1.29-1.971,2.823-2.555,4.598c-0.584,1.776-0.875,3.734-0.875,5.876
	c0,2.482,0.339,4.611,1.022,6.388c0.681,1.776,1.568,3.225,2.662,4.343c1.096,1.119,2.348,1.933,3.76,2.444
	c1.412,0.511,2.849,0.766,4.308,0.766c2.14,0,4.098-0.314,5.875-0.948c1.775-0.633,3.151-1.361,4.126-2.189V65.264H289.345z"/>
<path fill="#FFFFFF" d="M311.753,49.28c0,1.12-0.342,2.008-1.022,2.664c-0.682,0.657-1.509,0.985-2.481,0.985
	c-0.975,0-1.801-0.329-2.481-0.985c-0.683-0.656-1.022-1.544-1.022-2.664c0-1.118,0.34-2.008,1.022-2.664
	c0.681-0.657,1.507-0.986,2.481-0.986c0.973,0,1.8,0.329,2.481,0.986C311.412,47.272,311.753,48.162,311.753,49.28z M310.659,98.404
	h-4.746V60.667h4.746V98.404z"/>
<g>
	<path fill="#B2C8D6" d="M347.228,77.236c0.776,0.975,1.763,2.252,2.955,3.831c1.191,1.582,2.421,3.335,3.685,5.257
		c1.265,1.923,2.519,3.929,3.76,6.022c1.24,2.091,2.299,4.111,3.176,6.058h-7.737c-0.975-1.849-2.033-3.721-3.176-5.619
		c-1.144-1.897-2.3-3.711-3.466-5.438c-1.168-1.727-2.324-3.344-3.467-4.854c-1.144-1.508-2.178-2.821-3.103-3.941
		c-0.633,0.049-1.277,0.074-1.935,0.074c-0.656,0-1.325,0-2.007,0h-6.35v19.781h-7.08V48.55c1.994-0.486,4.22-0.814,6.678-0.985
		c2.456-0.171,4.708-0.256,6.752-0.256c7.104,0,12.518,1.34,16.24,4.015c3.723,2.677,5.586,6.667,5.586,11.972
		c0,3.357-0.89,6.229-2.665,8.612C353.296,74.291,350.682,76.068,347.228,77.236z M336.499,53.514c-3.019,0-5.328,0.072-6.935,0.219
		v19.05h5.037c2.433,0,4.621-0.122,6.569-0.364c1.946-0.243,3.587-0.704,4.927-1.388c1.337-0.681,2.372-1.642,3.102-2.883
		c0.73-1.24,1.096-2.883,1.096-4.927c0-1.898-0.365-3.479-1.096-4.746c-0.729-1.263-1.716-2.262-2.955-2.993
		c-1.241-0.73-2.7-1.24-4.38-1.533C340.184,53.659,338.397,53.514,336.499,53.514z"/>
	<path fill="#B2C8D6" d="M403.503,98.404c-0.827-2.188-1.605-4.342-2.334-6.46c-0.729-2.117-1.486-4.27-2.264-6.46h-22.919
		l-4.598,12.92h-7.373c1.945-5.353,3.771-10.303,5.475-14.854c1.703-4.549,3.369-8.869,5.001-12.958
		c1.629-4.086,3.249-7.992,4.854-11.715c1.604-3.723,3.283-7.409,5.035-11.058h6.496c1.752,3.649,3.43,7.335,5.038,11.058
		c1.604,3.723,3.221,7.628,4.853,11.715c1.628,4.088,3.296,8.407,5.001,12.958c1.703,4.55,3.526,9.501,5.474,14.854H403.503z
		 M396.861,79.645c-1.559-4.234-3.103-8.333-4.636-12.299c-1.532-3.966-3.127-7.774-4.779-11.424
		c-1.705,3.651-3.322,7.459-4.854,11.424c-1.532,3.967-3.054,8.066-4.563,12.299H396.861z"/>
	<path fill="#B2C8D6" d="M440.072,91.397c-0.486-1.169-1.131-2.653-1.935-4.453c-0.801-1.799-1.667-3.747-2.591-5.839
		c-0.926-2.092-1.909-4.245-2.956-6.46c-1.046-2.213-2.032-4.306-2.956-6.278c-0.924-1.97-1.788-3.733-2.591-5.291
		c-0.805-1.558-1.448-2.749-1.935-3.576c-0.536,5.742-0.974,11.959-1.313,18.649c-0.34,6.692-0.634,13.442-0.875,20.255h-6.936
		c0.193-4.38,0.414-8.797,0.657-13.248c0.242-4.453,0.521-8.833,0.839-13.138c0.317-4.307,0.657-8.503,1.022-12.592
		c0.366-4.086,0.768-7.956,1.205-11.605h6.204c1.313,2.142,2.726,4.672,4.233,7.592c1.509,2.918,3.017,5.973,4.527,9.16
		c1.507,3.188,2.966,6.375,4.38,9.563c1.41,3.187,2.7,6.094,3.868,8.722c1.167-2.628,2.457-5.535,3.869-8.722
		c1.412-3.188,2.869-6.375,4.38-9.563c1.509-3.187,3.017-6.24,4.526-9.16c1.507-2.92,2.919-5.45,4.232-7.592h6.206
		c1.653,16.302,2.895,33.164,3.722,50.583h-6.934c-0.244-6.812-0.538-13.563-0.877-20.255c-0.341-6.69-0.779-12.907-1.313-18.65
		c-0.488,0.828-1.132,2.02-1.935,3.577c-0.802,1.558-1.667,3.321-2.591,5.291c-0.925,1.972-1.909,4.064-2.953,6.278
		c-1.049,2.215-2.033,4.369-2.957,6.459c-0.925,2.093-1.788,4.039-2.591,5.839c-0.802,1.802-1.449,3.286-1.934,4.452h-5.701V91.397z
		"/>
	<path fill="#B2C8D6" d="M493.648,47.309c7.105,0,12.566,1.351,16.389,4.051c3.817,2.701,5.728,6.728,5.728,12.081
		c0,2.92-0.524,5.414-1.568,7.481c-1.049,2.071-2.555,3.748-4.527,5.037c-1.97,1.289-4.368,2.228-7.19,2.81
		c-2.821,0.585-6.009,0.877-9.56,0.877h-5.619v18.758h-7.082V48.55c1.994-0.486,4.222-0.814,6.681-0.985
		C489.354,47.394,491.603,47.309,493.648,47.309z M494.232,53.514c-3.017,0-5.328,0.072-6.933,0.219v19.854h5.326
		c2.435,0,4.623-0.158,6.569-0.476c1.946-0.316,3.589-0.85,4.927-1.605c1.337-0.754,2.374-1.789,3.103-3.103
		c0.731-1.314,1.095-2.993,1.095-5.038c0-1.944-0.375-3.551-1.131-4.817c-0.755-1.265-1.775-2.275-3.064-3.028
		c-1.292-0.754-2.788-1.277-4.488-1.57C497.929,53.659,496.13,53.514,494.232,53.514z"/>
</g>
</svg>
