<?xml version="1.0" encoding="utf-8"?>
<!-- Generator: Adobe Illustrator 15.0.0, SVG Export Plug-In . SVG Version: 6.00 Build 0)  -->
<!DOCTYPE svg PUBLIC "-//W3C//DTD SVG 1.1//EN" "http://www.w3.org/Graphics/SVG/1.1/DTD/svg11.dtd">
<svg version="1.1" id="Layer_1" xmlns="http://www.w3.org/2000/svg" xmlns:xlink="http://www.w3.org/1999/xlink" x="0px" y="0px"
	 width="197.382px" height="151.465px" viewBox="0 0 197.382 151.465" enable-background="new 0 0 197.382 151.465"
	 xml:space="preserve">
<g id="XMLID_7_">
	
		<linearGradient id="SVGID_1_" gradientUnits="userSpaceOnUse" x1="-340.6226" y1="559.8809" x2="-162.0087" y2="559.8809" gradientTransform="matrix(0.8086 -0.5884 0.5884 0.8086 -7.9251 -542.0003)">
		<stop  offset="0" style="stop-color:#B6F0FD"/>
		<stop  offset="0.5459" style="stop-color:#64A5C2"/>
		<stop  offset="0.949" style="stop-color:#9CD6F3"/>
		<stop  offset="1" style="stop-color:#A4DCFA"/>
	</linearGradient>
	<path fill="url(#SVGID_1_)" d="M142.872,61.335c-2.838,0.975-5.463,1.445-7.802,1.86c-1.158,0.211-2.253,0.404-3.319,0.647
		c-1.166,0.268-2.131,0.547-3.038,0.884c-0.444,0.166-0.886,0.35-1.302,0.54c-9.674,4.483-14.261,14.307-10.913,23.361
		c1.011,2.732,2.704,5.219,4.892,7.188c1.466,1.166,3.352,2.482,5.344,3.877c5.459,3.814,12.252,8.562,16.613,14.427
		c4.375,5.896,5.602,11.975,3.653,18.133c-0.466,1.49-1.125,2.983-1.963,4.479c-3.382,6.041-8.711,10.646-14.997,12.974
		c-6.116,2.264-12.889,2.346-19.071,0.244c-6.08-2.072-11.341-6.156-14.82-11.511l-0.104-0.172
		c-0.204-0.365-0.394-0.729-0.572-1.092c-0.002-0.004-0.002-0.008-0.006-0.01c-4.891-9.883-1.819-19.074,0.667-26.512
		c0.911-2.723,1.768-5.295,2.2-7.674l0.013-0.056c0.753-3.746,0.528-7.28-0.665-10.51c-1.786-4.824-5.255-8.69-9.773-10.888
		l-0.167-0.086c-3.824-2.184-7.735-2.342-12.68-0.514c-4.361,1.613-8.853,4.541-13.608,7.637c-4.581,2.98-9.32,6.068-14.305,8.188
		c-0.952,0.402-1.907,0.783-2.843,1.129c-9.713,3.594-18.234,3.996-24.564,1.258c-0.01-0.004-0.021-0.01-0.031-0.016
		c-0.536-0.244-1.061-0.508-1.578-0.781c-0.865-0.475-1.678-1.021-2.439-1.633C9.72,92.04,5.174,85.807,2.538,78.684
		c-7.809-21.109,3.013-44.64,24.128-52.45c16.361-6.053,34.953-1.372,45.212,11.388c2.314,2.888,3.972,5.348,5.233,7.594
		c1.832,3.259,2.841,6.072,3.828,9.11c0.231,0.709,0.468,1.543,0.716,2.425c1,3.524,2.506,8.85,5.062,10.705l0.089,0.072
		c4.139,3.273,9.521,4.146,14.398,2.346c5.067-1.876,7.303-6.603,8.185-9.252l0.059-0.166c1.715-4.248-0.58-9.278-2.605-13.712
		l-0.16-0.343c-0.272-0.605-0.572-1.206-0.88-1.847c-1.869-3.818-4.13-8.438-3.369-16.089c0.119-1.179,0.304-2.436,0.58-3.768
		l0.013-0.048c2.316-10.327,9.942-19.023,19.89-22.704c16.175-5.984,34.195,2.305,40.178,18.479
		c2.622,7.082,2.58,14.859-0.11,21.904c-2.657,6.95-7.706,12.735-14.222,16.299c-1.688,0.99-3.381,1.789-5.174,2.454
		C143.348,61.168,143.107,61.254,142.872,61.335z M147.37,56.165c12.189-6.652,18.031-21.348,13.071-34.76
		C154.989,6.672,138.629-0.852,123.897,4.6c-9.41,3.479-16.054,11.506-18.11,20.668c-2.125,10.362,1.223,15.036,3.467,19.954
		c1.992,4.361,4.416,9.471,3.392,14.411c-0.096,0.387-0.195,0.775-0.311,1.158c-0.002,0.009-0.004,0.021-0.006,0.029
		c-0.079,0.229-0.16,0.462-0.256,0.692c-1.587,4.771-4.813,9.135-9.89,11.015c-6.024,2.226-12.436,0.934-17.133-2.784
		c-0.127-0.09-0.254-0.191-0.376-0.293c-3.793-3.161-5.271-10.714-6.426-14.251c-1.543-4.751-3.069-8.927-8.578-15.806
		c-9.601-11.94-26.892-16.104-42.021-10.508C7.965,36.169-2.087,58.024,5.193,77.704c2.543,6.875,6.86,12.569,12.252,16.791
		c6.357,5.098,17.004,4.58,28.593-0.345c12.76-5.422,24.411-17.854,36.043-17.278c0,0,0.007,0.004,0.007,0
		c2.352,0.28,4.631,0.942,6.75,1.942c0.104,0.058,0.205,0.111,0.308,0.17c5.014,2.441,9.074,6.736,11.191,12.449
		c1.488,4.031,1.572,8.129,0.784,12.051c-0.075,0.414-0.16,0.832-0.254,1.25c-2.144,9.382-9,20.134-2.35,32.164
		c6.417,9.863,19.035,14.406,30.536,10.15c5.975-2.211,10.629-6.553,13.517-11.705c10.05-17.891-12.909-29.477-22.643-37.07
		c-0.119-0.104-0.241-0.198-0.364-0.295c-2.475-2.203-4.489-5.049-5.723-8.369c-4.012-10.85,1.884-22.043,12.379-26.91
		c1.635-0.758,3.254-1.24,4.903-1.614c0.002-0.002,0.002-0.002,0.002-0.002C135.963,59.979,141.079,59.844,147.37,56.165z"/>
	
		<linearGradient id="SVGID_2_" gradientUnits="userSpaceOnUse" x1="10.1963" y1="442.1621" x2="64.802" y2="463.1294" gradientTransform="matrix(0.9877 0.1563 -0.1563 0.9877 166.8399 -418.1786)">
		<stop  offset="0" style="stop-color:#82CAE4"/>
		<stop  offset="1" style="stop-color:#16466C"/>
	</linearGradient>
	<path fill="url(#SVGID_2_)" d="M160.441,21.405c4.96,13.412-0.882,28.107-13.071,34.76c-6.291,3.679-11.406,3.813-16.245,4.918
		l-0.004-0.022c7.078-2.618,10.694-10.475,8.074-17.553c-2.618-7.076-10.476-10.69-17.553-8.075
		c-6.192,2.292-10.271,8.674-8.87,14.584c0.669,2.917,0.64,6.325-0.127,9.617c1.024-4.94-1.399-10.05-3.392-14.411
		c-2.244-4.918-5.592-9.592-3.467-19.954c2.057-9.162,8.7-17.188,18.11-20.668C138.629-0.852,154.989,6.672,160.441,21.405z"/>
	
		<linearGradient id="SVGID_3_" gradientUnits="userSpaceOnUse" x1="35.7896" y1="479.6309" x2="55.8079" y2="539.673" gradientTransform="matrix(0.9877 0.1563 -0.1563 0.9877 166.8399 -418.1786)">
		<stop  offset="0" style="stop-color:#366C91"/>
		<stop  offset="0.0742" style="stop-color:#427B9E"/>
		<stop  offset="0.3378" style="stop-color:#68AAC7"/>
		<stop  offset="0.5712" style="stop-color:#83CCE5"/>
		<stop  offset="0.7633" style="stop-color:#94E0F7"/>
		<stop  offset="0.8903" style="stop-color:#9AE8FE"/>
	</linearGradient>
	<path fill="url(#SVGID_3_)" d="M135.07,63.195c2.339-0.415,4.964-0.886,7.802-1.86c-7.255,3.999-11.156,12.327-9.788,21.572
		c1.385,9.352,11.281,18.315,13.916,24.866c2.678,6.656,3.633,14.662,0.006,24.479H147c1.948-6.16,0.722-12.238-3.653-18.133
		c-4.361-5.863-11.154-10.611-16.613-14.428c-1.992-1.396-3.878-2.711-5.344-3.877c-2.188-1.969-3.881-4.453-4.892-7.188
		c-3.348-9.055,1.239-18.877,10.913-23.36c0.416-0.19,0.857-0.374,1.302-0.54c0.907-0.337,1.872-0.616,3.038-0.884
		C132.817,63.6,133.912,63.406,135.07,63.195z"/>
	
		<linearGradient id="SVGID_4_" gradientUnits="userSpaceOnUse" x1="17.1694" y1="554.8262" x2="60.1478" y2="530.7125" gradientTransform="matrix(0.9877 0.1563 -0.1563 0.9877 166.8399 -418.1786)">
		<stop  offset="0" style="stop-color:#9AE8FD"/>
		<stop  offset="1" style="stop-color:#0B3862"/>
	</linearGradient>
	<path fill="url(#SVGID_4_)" d="M119.927,98.273c9.733,7.595,32.692,19.183,22.643,37.07c-2.888,5.152-7.542,9.494-13.517,11.705
		c-11.501,4.256-24.119-0.287-30.536-10.15c-6.65-12.03,0.206-22.782,2.35-32.164h0.004c-0.476,2.175-0.422,4.521,0.405,6.752
		c2.305,6.229,9.164,9.438,15.324,7.158c6.152-2.274,9.276-9.176,6.97-15.403C122.807,101.18,121.503,99.562,119.927,98.273z"/>
	
		<linearGradient id="SVGID_5_" gradientUnits="userSpaceOnUse" x1="-27.5015" y1="485.7168" x2="2.2258" y2="498.2685" gradientTransform="matrix(1 0 0 1 110 -442.5342)">
		<stop  offset="0" style="stop-color:#24567E"/>
		<stop  offset="0.9974" style="stop-color:#9AE8FD"/>
	</linearGradient>
	<path fill="url(#SVGID_5_)" d="M102.356,28.456l0.076,0.009c-0.761,7.65,1.5,12.271,3.369,16.089
		c0.308,0.641,0.607,1.241,0.88,1.847l0.16,0.343c2.025,4.434,4.32,9.464,2.605,13.712l-0.059,0.166
		c-0.882,2.649-3.117,7.376-8.185,9.252c-4.877,1.801-10.26,0.928-14.398-2.346l-0.089-0.072c-2.556-1.855-4.062-7.181-5.062-10.705
		c-0.248-0.882-0.484-1.716-0.716-2.425c-0.987-3.038-1.996-5.852-3.828-9.11l0.019-0.009c1.018,1.815,1.808,3.358,2.069,3.776
		c3.307,5.24,8.349,6.698,14.169,4.444c6.54-2.531,8.081-8.166,8.391-14.321C101.819,37.893,101.966,32.428,102.356,28.456z"/>
	
		<linearGradient id="SVGID_6_" gradientUnits="userSpaceOnUse" x1="-47.4219" y1="514.8174" x2="19.1816" y2="537.3168" gradientTransform="matrix(0.9877 0.1563 -0.1563 0.9877 166.8399 -418.1786)">
		<stop  offset="0" style="stop-color:#2B6085"/>
		<stop  offset="1" style="stop-color:#98E7FE"/>
	</linearGradient>
	<path fill="url(#SVGID_6_)" d="M97.681,92.418c1.193,3.229,1.418,6.764,0.665,10.51l-0.013,0.055
		c-0.433,2.379-1.289,4.951-2.2,7.675c-2.486,7.436-5.558,16.629-0.667,26.51c-6.956-10.071-4.737-22.42-6.842-29.067
		c-1.934-6.103-11.237-11.75-20.724-8.982c-10.539,3.076-16.299,4.094-23.614,4.57c-5.872,0.391-17.989-0.42-26.155-5.338
		c5.91,3.562,16.461,3.131,26.174-0.464c0.936-0.344,1.891-0.725,2.843-1.129c4.984-2.118,9.724-5.207,14.305-8.188
		c4.756-3.094,9.247-6.021,13.608-7.635c4.944-1.828,8.855-1.67,12.68,0.514l0.167,0.085C92.426,83.727,95.895,87.594,97.681,92.418
		z"/>
	
		<linearGradient id="SVGID_7_" gradientUnits="userSpaceOnUse" x1="-94.2773" y1="534.0186" x2="-44.2777" y2="481.0189" gradientTransform="matrix(1 0 0 1 110 -442.5342)">
		<stop  offset="0" style="stop-color:#AEE8F8"/>
		<stop  offset="1" style="stop-color:#26577E"/>
	</linearGradient>
	<path fill="url(#SVGID_7_)" d="M84.674,69.451l-0.036,0.043c-2.304-1.917-4.148-4.445-5.261-7.457
		c-0.074-0.205-2.225-4.887-2.821-6.351C72.424,45.468,60.968,40.097,50.631,43.92c-10.333,3.82-15.61,15.297-11.789,25.636
		c3.824,10.333,15.301,15.61,25.632,11.79c0.218-0.082,1.891-0.764,2.762-1.158c1.701-0.771,3.05-1.53,4.506-2.069
		c3.441-1.271,6.966-1.65,10.339-1.246C70.449,76.297,58.797,88.729,46.038,94.15c-11.589,4.925-22.235,5.441-28.593,0.345
		c-5.392-4.222-9.709-9.916-12.252-16.791c-7.28-19.68,2.772-41.535,22.456-48.816c15.13-5.596,32.421-1.433,42.021,10.508
		c5.509,6.879,7.035,11.055,8.578,15.806C79.403,58.737,80.881,66.29,84.674,69.451z"/>
	
		<linearGradient id="SVGID_8_" gradientUnits="userSpaceOnUse" x1="-65.8345" y1="533.9824" x2="-64.7792" y2="533.3904" gradientTransform="matrix(0.9877 0.1563 -0.1563 0.9877 166.8399 -418.1786)">
		<stop  offset="0" style="stop-color:#DCFFBB"/>
		<stop  offset="1" style="stop-color:#94E158"/>
	</linearGradient>
	<path fill="url(#SVGID_8_)" d="M18.131,98.348c0.518,0.271,1.042,0.535,1.578,0.779C19.165,98.891,18.639,98.631,18.131,98.348z"/>
</g>
</svg>
