<?xml version="1.0" encoding="utf-8"?>
<!-- Generator: Adobe Illustrator 15.0.0, SVG Export Plug-In . SVG Version: 6.00 Build 0)  -->
<!DOCTYPE svg PUBLIC "-//W3C//DTD SVG 1.1//EN" "http://www.w3.org/Graphics/SVG/1.1/DTD/svg11.dtd">
<svg version="1.1" id="Layer_1" xmlns="http://www.w3.org/2000/svg" xmlns:xlink="http://www.w3.org/1999/xlink" x="0px" y="0px"
	 width="60px" height="50px" viewBox="0 0 60 50" enable-background="new 0 0 60 50" xml:space="preserve">
<path fill="#65ABC9" d="M48.361,9.76c-1.609-4.353-6.459-6.584-10.813-4.973c-2.675,0.991-4.729,3.332-5.352,6.11l-0.002,0.013
	c-0.075,0.358-0.125,0.697-0.156,1.015c-0.205,2.059,0.403,3.303,0.907,4.33c0.083,0.172,0.163,0.334,0.236,0.497l0.043,0.093
	c0.544,1.194,1.163,2.546,0.7,3.69l-0.016,0.045c-0.178,0.535-0.562,1.385-1.317,1.989c0.755-0.604,1.139-1.454,1.316-1.988
	l0.016-0.045c0.462-1.144-0.155-2.497-0.701-3.69l-0.043-0.093c-0.074-0.163-0.154-0.325-0.237-0.497
	c-0.502-1.028-1.112-2.271-0.906-4.33l-0.021-0.002c-0.104,1.069-0.144,2.539-0.159,2.867c-0.084,1.657-0.499,3.173-2.259,3.854
	c-1.566,0.606-2.923,0.213-3.813-1.197c-0.07-0.113-0.283-0.527-0.557-1.016l-0.004,0.002l0,0c-0.339-0.605-0.786-1.268-1.408-2.044
	c-2.76-3.435-7.765-4.694-12.167-3.064C5.963,13.428,3.049,19.76,5.15,25.439c0.709,1.918,1.934,3.594,3.541,4.852
	c0.205,0.163,0.423,0.311,0.656,0.439c0.083,0.043,0.168,0.082,0.253,0.125c-0.083-0.043-0.176-0.074-0.253-0.121
	c2.198,1.324,5.459,1.543,7.04,1.437c1.969-0.128,3.52-0.401,6.355-1.229c2.553-0.746,5.057,0.775,5.577,2.418
	c0.566,1.788-0.032,5.111,1.841,7.822c-0.823-1.662-0.808-3.254-0.518-4.701c-0.289,1.447-0.304,3.037,0.519,4.698
	c0.001,0,0.001,0.001,0.002,0.001c0.047,0.1,0.098,0.197,0.154,0.295l0.026,0.047c0.937,1.44,2.353,2.54,3.99,3.096
	c1.663,0.566,3.485,0.545,5.131-0.065c1.692-0.626,3.127-1.864,4.036-3.491c0.226-0.402,0.402-0.803,0.527-1.205l0.002,0.002l0,0
	c0.978-2.643,0.721-4.796,0-6.588c-0.71-1.762-3.373-4.176-3.747-6.692c-0.367-2.488,0.682-4.729,2.635-5.806
	c0.062-0.021,0.127-0.044,0.191-0.069c0.483-0.18,0.939-0.394,1.395-0.661c1.752-0.959,3.111-2.517,3.826-4.387
	C49.057,13.758,49.068,11.667,48.361,9.76z M28.128,26.209l-0.045-0.023C27.053,25.6,26,25.557,24.67,26.049
	c-1.174,0.435-2.383,1.223-3.663,2.053c-1.234,0.803-2.509,1.635-3.849,2.205c-0.256,0.109-0.514,0.211-0.766,0.305
	c-0.216,0.079-0.435,0.145-0.654,0.213c0.217-0.069,0.433-0.137,0.654-0.219c0.252-0.094,0.509-0.197,0.766-0.305
	c1.341-0.57,2.615-1.4,3.849-2.203c1.28-0.834,2.488-1.621,3.662-2.056c1.331-0.492,2.384-0.448,3.413,0.14l0.045,0.021
	c1.216,0.592,2.149,1.634,2.63,2.932c0.161,0.436,0.256,0.892,0.286,1.364c-0.031-0.472-0.125-0.927-0.286-1.361
	C30.276,27.838,29.342,26.798,28.128,26.209z M39.757,20.7l0,0.005c0,0,0,0,0,0c-0.444,0.101-0.879,0.229-1.319,0.434
	c-2.825,1.311-4.411,4.322-3.332,7.242c0.332,0.895,0.874,1.66,1.54,2.252c0.033,0.027,0.066,0.052,0.098,0.08
	c0.002,0.002,0.004,0.002,0.005,0.004c0.422,0.348,0.771,0.779,0.977,1.334c0.621,1.676-0.221,3.533-1.875,4.145
	c-1.658,0.614-3.505-0.25-4.125-1.927c-0.222-0.601-0.237-1.23-0.109-1.817h-0.001c-0.577,2.525-2.422,5.418-0.633,8.655
	c0.324,0.499,0.706,0.946,1.134,1.337c-0.428-0.391-0.811-0.838-1.135-1.337c-1.789-3.237,0.056-6.13,0.633-8.655
	c0.025-0.113,0.048-0.225,0.068-0.336c0.213-1.057,0.189-2.159-0.211-3.244c-0.569-1.539-1.661-2.693-3.011-3.352
	c-0.027-0.016-0.055-0.029-0.083-0.045c-0.57-0.268-1.184-0.448-1.817-0.522h-0.001c-0.003,0-0.007,0-0.012,0
	c-0.904-0.106-1.849-0.004-2.771,0.336c-0.392,0.144-0.755,0.349-1.212,0.557c-0.235,0.105-0.685,0.289-0.744,0.312
	c-2.78,1.027-5.869-0.392-6.899-3.173c-1.028-2.783,0.392-5.872,3.173-6.899c2.781-1.028,5.864,0.417,6.977,3.167
	c0.159,0.395,0.74,1.653,0.759,1.709c0.3,0.809,0.796,1.49,1.417,2.007l0.009-0.012c-1.02-0.851-1.417-2.884-1.728-3.836
	c-0.415-1.278-0.826-2.402-2.309-4.253c-2.583-3.213-7.237-4.334-11.31-2.827c-3.973,1.469-6.488,5.145-6.671,9.125
	c0.183-3.98,2.698-7.657,6.671-9.127c4.073-1.506,8.726-0.385,11.31,2.828c1.483,1.851,1.894,2.976,2.309,4.254
	c0.311,0.951,0.708,2.984,1.729,3.835c0.034,0.027,0.068,0.055,0.102,0.079c1.265,1,2.99,1.348,4.612,0.749
	c1.366-0.506,2.233-1.68,2.662-2.964c0.025-0.061,0.046-0.125,0.068-0.187c0-0.001,0-0.005,0.001-0.007
	c0.031-0.104,0.058-0.208,0.084-0.312c0.035-0.166,0.055-0.333,0.062-0.5c-0.007,0.167-0.027,0.334-0.062,0.501
	c0.206-0.887,0.213-1.803,0.033-2.588c-0.376-1.59,0.721-3.308,2.387-3.925c1.906-0.704,4.02,0.268,4.725,2.173
	S41.662,19.995,39.757,20.7z"/>
</svg>
