<?xml version="1.0" encoding="utf-8"?>
<!-- Generator: Adobe Illustrator 15.0.0, SVG Export Plug-In . SVG Version: 6.00 Build 0)  -->
<!DOCTYPE svg PUBLIC "-//W3C//DTD SVG 1.1//EN" "http://www.w3.org/Graphics/SVG/1.1/DTD/svg11.dtd">
<svg version="1.1" id="Layer_1" xmlns="http://www.w3.org/2000/svg" xmlns:xlink="http://www.w3.org/1999/xlink" x="0px" y="0px"
	 width="80px" height="50px" viewBox="0 0 80 50" enable-background="new 0 0 80 50" xml:space="preserve">
<g id="XMLID_7_">
	
		<linearGradient id="SVGID_1_" gradientUnits="userSpaceOnUse" x1="-240.4609" y1="514.6777" x2="-187.0498" y2="514.6777" gradientTransform="matrix(0.8086 -0.5884 0.5884 0.8086 -92.6187 -522.4207)">
		<stop  offset="0" style="stop-color:#B6F0FD"/>
		<stop  offset="0.5459" style="stop-color:#64A5C2"/>
		<stop  offset="0.949" style="stop-color:#9CD6F3"/>
		<stop  offset="1" style="stop-color:#A4DCFA"/>
	</linearGradient>
	<path fill="url(#SVGID_1_)" d="M44.724,20.341c-0.848,0.292-1.633,0.433-2.333,0.556c-0.347,0.063-0.674,0.121-0.993,0.194
		c-0.348,0.08-0.637,0.164-0.909,0.265c-0.132,0.049-0.264,0.104-0.389,0.161c-2.893,1.341-4.264,4.278-3.262,6.985
		c0.302,0.818,0.808,1.561,1.462,2.149c0.438,0.349,1.002,0.743,1.598,1.16c1.633,1.141,3.664,2.56,4.968,4.313
		c1.308,1.763,1.675,3.582,1.092,5.422c-0.139,0.446-0.336,0.892-0.586,1.339c-1.011,1.806-2.605,3.184-4.485,3.879
		c-1.829,0.677-3.854,0.702-5.702,0.073c-1.819-0.619-3.392-1.84-4.433-3.441l-0.03-0.052c-0.062-0.108-0.119-0.217-0.171-0.326
		c-0.001-0.001-0.001-0.003-0.002-0.003c-1.463-2.955-0.544-5.704,0.199-7.928c0.272-0.814,0.529-1.583,0.658-2.294l0.003-0.017
		c0.225-1.12,0.158-2.176-0.199-3.143c-0.534-1.442-1.571-2.599-2.922-3.256l-0.05-0.026c-1.144-0.652-2.313-0.7-3.792-0.154
		c-1.305,0.483-2.647,1.358-4.069,2.284c-1.371,0.892-2.787,1.815-4.277,2.448c-0.286,0.12-0.571,0.234-0.851,0.338
		c-2.904,1.075-5.453,1.195-7.346,0.376c-0.002-0.001-0.006-0.003-0.009-0.004c-0.16-0.073-0.316-0.152-0.472-0.233
		c-0.259-0.143-0.501-0.306-0.729-0.488c-1.786-1.396-3.146-3.26-3.934-5.391C0.424,19.217,3.661,12.181,9.976,9.846
		c4.892-1.811,10.452-0.411,13.519,3.405c0.692,0.863,1.188,1.599,1.565,2.271c0.547,0.974,0.849,1.815,1.144,2.724
		c0.069,0.212,0.141,0.462,0.214,0.725c0.299,1.054,0.75,2.647,1.514,3.201l0.027,0.021c1.237,0.979,2.847,1.24,4.306,0.702
		c1.514-0.561,2.183-1.975,2.446-2.767l0.018-0.05c0.514-1.271-0.173-2.774-0.778-4.1l-0.048-0.103
		c-0.082-0.181-0.171-0.361-0.263-0.552c-0.559-1.142-1.235-2.524-1.007-4.812c0.035-0.353,0.09-0.729,0.173-1.127l0.003-0.015
		c0.692-3.087,2.974-5.688,5.947-6.789c4.838-1.79,10.226,0.689,12.016,5.526c0.784,2.118,0.771,4.443-0.034,6.55
		c-0.794,2.078-2.304,3.808-4.252,4.874c-0.505,0.296-1.011,0.534-1.548,0.734C44.866,20.292,44.794,20.317,44.724,20.341z
		 M46.068,18.796c3.646-1.989,5.392-6.383,3.909-10.395c-1.63-4.405-6.522-6.655-10.927-5.025c-2.814,1.04-4.8,3.44-5.415,6.18
		c-0.636,3.098,0.365,4.496,1.036,5.966c0.596,1.305,1.321,2.833,1.015,4.31c-0.029,0.115-0.059,0.231-0.093,0.346
		c-0.001,0.002-0.001,0.006-0.001,0.008c-0.024,0.069-0.048,0.139-0.076,0.207c-0.476,1.427-1.44,2.731-2.958,3.293
		c-1.801,0.666-3.718,0.279-5.124-0.832c-0.038-0.027-0.076-0.058-0.113-0.088c-1.134-0.945-1.576-3.204-1.921-4.261
		c-0.461-1.42-0.917-2.67-2.565-4.727c-2.871-3.57-8.041-4.815-12.566-3.142c-5.886,2.178-8.892,8.713-6.715,14.598
		c0.761,2.057,2.052,3.759,3.664,5.021c1.901,1.525,5.085,1.37,8.55-0.102c3.816-1.622,7.3-5.339,10.778-5.167c0,0,0.001,0,0.001,0
		c0.704,0.083,1.385,0.282,2.019,0.58c0.031,0.018,0.062,0.034,0.092,0.051c1.5,0.73,2.714,2.014,3.346,3.724
		c0.445,1.205,0.471,2.43,0.235,3.604c-0.022,0.123-0.048,0.248-0.076,0.373c-0.641,2.806-2.691,6.021-0.703,9.617
		c1.918,2.95,5.692,4.309,9.131,3.036c1.786-0.661,3.178-1.958,4.042-3.5c3.005-5.35-3.861-8.814-6.771-11.085
		c-0.036-0.031-0.072-0.058-0.109-0.087c-0.74-0.659-1.342-1.51-1.711-2.503c-1.199-3.245,0.563-6.591,3.702-8.047
		c0.489-0.227,0.973-0.37,1.466-0.482c0.001,0,0.001,0,0.001,0C42.657,19.937,44.188,19.896,46.068,18.796z"/>
	
		<linearGradient id="SVGID_2_" gradientUnits="userSpaceOnUse" x1="15.6416" y1="475.6934" x2="31.9703" y2="481.9632" gradientTransform="matrix(0.9877 0.1563 -0.1563 0.9877 93.1381 -464.2644)">
		<stop  offset="0" style="stop-color:#82CAE4"/>
		<stop  offset="1" style="stop-color:#16466C"/>
	</linearGradient>
	<path fill="url(#SVGID_2_)" d="M49.977,8.401c1.483,4.011-0.263,8.405-3.909,10.395c-1.88,1.1-3.411,1.14-4.857,1.471l-0.001-0.006
		c2.117-0.783,3.198-3.133,2.415-5.25s-3.133-3.197-5.25-2.415c-1.851,0.686-3.07,2.594-2.652,4.361
		c0.2,0.873,0.192,1.891-0.037,2.876c0.306-1.477-0.418-3.005-1.015-4.309c-0.671-1.471-1.672-2.869-1.036-5.967
		c0.615-2.74,2.601-5.14,5.415-6.181C43.455,1.746,48.347,3.996,49.977,8.401z"/>
	
		<linearGradient id="SVGID_3_" gradientUnits="userSpaceOnUse" x1="23.2949" y1="486.8965" x2="29.2813" y2="504.8518" gradientTransform="matrix(0.9877 0.1563 -0.1563 0.9877 93.1381 -464.2644)">
		<stop  offset="0" style="stop-color:#366C91"/>
		<stop  offset="0.0742" style="stop-color:#427B9E"/>
		<stop  offset="0.3378" style="stop-color:#68AAC7"/>
		<stop  offset="0.5712" style="stop-color:#83CCE5"/>
		<stop  offset="0.7633" style="stop-color:#94E0F7"/>
		<stop  offset="0.8903" style="stop-color:#9AE8FE"/>
	</linearGradient>
	<path fill="url(#SVGID_3_)" d="M42.391,20.897c0.7-0.124,1.485-0.265,2.333-0.556c-2.169,1.196-3.336,3.686-2.927,6.451
		c0.415,2.796,3.374,5.477,4.162,7.436c0.801,1.991,1.087,4.384,0.001,7.32h-0.001c0.583-1.843,0.216-3.66-1.092-5.422
		c-1.304-1.753-3.335-3.173-4.968-4.314c-0.596-0.417-1.159-0.811-1.598-1.16c-0.655-0.588-1.161-1.332-1.462-2.149
		c-1.001-2.708,0.37-5.644,3.262-6.985c0.125-0.057,0.257-0.112,0.389-0.162c0.272-0.101,0.561-0.185,0.909-0.265
		C41.716,21.019,42.044,20.96,42.391,20.897z"/>
	
		<linearGradient id="SVGID_4_" gradientUnits="userSpaceOnUse" x1="17.7275" y1="509.3828" x2="30.5795" y2="502.172" gradientTransform="matrix(0.9877 0.1563 -0.1563 0.9877 93.1381 -464.2644)">
		<stop  offset="0" style="stop-color:#9AE8FD"/>
		<stop  offset="1" style="stop-color:#0B3862"/>
	</linearGradient>
	<path fill="url(#SVGID_4_)" d="M37.863,31.387c2.91,2.271,9.776,5.737,6.771,11.085c-0.864,1.542-2.256,2.839-4.042,3.5
		c-3.439,1.273-7.213-0.085-9.131-3.036c-1.989-3.597,0.062-6.812,0.703-9.617h0.001c-0.142,0.651-0.126,1.352,0.121,2.019
		c0.689,1.862,2.741,2.823,4.583,2.141c1.839-0.68,2.774-2.743,2.084-4.606C38.723,32.256,38.334,31.773,37.863,31.387z"/>
	
		<linearGradient id="SVGID_5_" gradientUnits="userSpaceOnUse" x1="-3.3291" y1="491.4473" x2="5.5603" y2="495.2006" gradientTransform="matrix(1 0 0 1 30 -476.5342)">
		<stop  offset="0" style="stop-color:#24567E"/>
		<stop  offset="0.9974" style="stop-color:#9AE8FD"/>
	</linearGradient>
	<path fill="url(#SVGID_5_)" d="M32.608,10.51l0.023,0.002c-0.228,2.288,0.449,3.669,1.007,4.812
		c0.093,0.191,0.182,0.371,0.264,0.552l0.047,0.103c0.606,1.326,1.292,2.829,0.779,4.1l-0.018,0.05
		c-0.263,0.792-0.932,2.206-2.447,2.767c-1.458,0.539-3.068,0.276-4.305-0.702l-0.027-0.021c-0.764-0.554-1.215-2.147-1.514-3.201
		c-0.073-0.263-0.144-0.513-0.213-0.725c-0.295-0.909-0.597-1.75-1.145-2.724l0.006-0.003c0.304,0.543,0.541,1.004,0.619,1.129
		c0.989,1.567,2.497,2.003,4.237,1.33c1.956-0.757,2.417-2.442,2.51-4.283C32.448,13.331,32.492,11.698,32.608,10.51z"/>
	
		<linearGradient id="SVGID_6_" gradientUnits="userSpaceOnUse" x1="-1.5874" y1="497.4189" x2="18.3294" y2="504.1471" gradientTransform="matrix(0.9877 0.1563 -0.1563 0.9877 93.1381 -464.2644)">
		<stop  offset="0" style="stop-color:#2B6085"/>
		<stop  offset="1" style="stop-color:#98E7FE"/>
	</linearGradient>
	<path fill="url(#SVGID_6_)" d="M31.21,29.636c0.357,0.966,0.424,2.023,0.199,3.143l-0.004,0.018
		c-0.129,0.71-0.385,1.48-0.657,2.294c-0.744,2.224-1.663,4.973-0.2,7.928c-2.081-3.012-1.417-6.705-2.046-8.692
		c-0.578-1.825-3.36-3.514-6.197-2.686c-3.151,0.92-4.874,1.224-7.062,1.366c-1.755,0.118-5.379-0.125-7.821-1.596
		c1.767,1.065,4.922,0.937,7.827-0.138c0.28-0.103,0.566-0.217,0.851-0.338c1.489-0.632,2.906-1.557,4.277-2.448
		c1.422-0.925,2.765-1.8,4.07-2.283c1.478-0.546,2.647-0.499,3.792,0.154l0.05,0.025C29.638,27.037,30.676,28.193,31.21,29.636z"/>
	
		<linearGradient id="SVGID_7_" gradientUnits="userSpaceOnUse" x1="-23.2974" y1="505.8916" x2="-8.346" y2="490.0431" gradientTransform="matrix(1 0 0 1 30 -476.5342)">
		<stop  offset="0" style="stop-color:#AEE8F8"/>
		<stop  offset="1" style="stop-color:#26577E"/>
	</linearGradient>
	<path fill="url(#SVGID_7_)" d="M27.32,22.768l-0.01,0.014c-0.689-0.574-1.241-1.331-1.574-2.23
		c-0.021-0.062-0.666-1.461-0.843-1.899c-1.236-3.056-4.662-4.662-7.752-3.519c-3.09,1.142-4.668,4.574-3.526,7.666
		c1.145,3.09,4.577,4.667,7.666,3.525c0.065-0.025,0.565-0.229,0.826-0.347c0.508-0.23,0.912-0.458,1.347-0.618
		c1.029-0.38,2.083-0.494,3.092-0.373c-3.479-0.172-6.963,3.545-10.778,5.167c-3.465,1.472-6.648,1.626-8.55,0.102
		c-1.612-1.262-2.903-2.964-3.664-5.021c-2.177-5.885,0.829-12.42,6.715-14.597c4.525-1.674,9.696-0.429,12.566,3.142
		c1.647,2.057,2.104,3.306,2.565,4.726C25.745,19.564,26.187,21.823,27.32,22.768z"/>
	
		<linearGradient id="SVGID_8_" gradientUnits="userSpaceOnUse" x1="-7.0938" y1="503.1494" x2="-6.7786" y2="502.9726" gradientTransform="matrix(0.9877 0.1563 -0.1563 0.9877 93.1381 -464.2644)">
		<stop  offset="0" style="stop-color:#DCFFBB"/>
		<stop  offset="1" style="stop-color:#94E158"/>
	</linearGradient>
	<path fill="url(#SVGID_8_)" d="M7.423,31.41c0.155,0.082,0.312,0.16,0.472,0.233C7.732,31.572,7.575,31.495,7.423,31.41z"/>
</g>
</svg>
